<svg xmlns="http://www.w3.org/2000/svg" viewBox="0 0 256 256">
  <!-- backdrop: deep slate-navy squircle, unbranded (no OEM colors/marks) -->
  <rect x="6" y="6" width="244" height="244" rx="56" fill="#122036"/>

  <!-- car silhouette -->
  <rect x="34" y="146" width="188" height="46" rx="20" fill="#EEF2F7"/>
  <rect x="74" y="104" width="112" height="48" rx="22" fill="#EEF2F7"/>
  <rect x="84" y="112" width="92" height="26" rx="10" fill="#122036"/>

  <!-- wheels -->
  <circle cx="84" cy="192" r="22" fill="#122036"/>
  <circle cx="84" cy="192" r="9" fill="#EEF2F7"/>
  <circle cx="176" cy="192" r="22" fill="#122036"/>
  <circle cx="176" cy="192" r="9" fill="#EEF2F7"/>

  <!-- charging badge -->
  <circle cx="196" cy="108" r="42" fill="#122036"/>
  <circle cx="196" cy="108" r="36" fill="#3DE6B8"/>
  <g transform="translate(196,108) scale(0.105) translate(-160,-256)">
    <path fill="#0B1626" d="M349.4 44.6c5.9-13.7 1.5-29.7-10.6-38.5s-28.6-8-39.9 1.8l-256 224c-10 8.8-13.6 22.9-9 35.3S50.7 288 64 288H175.5L98.6 467.4c-5.9 13.7-1.5 29.7 10.6 38.5s28.6 8 39.9-1.8l256-224c10-8.8 13.6-22.9 9-35.3s-16.6-20.7-30-20.7H272.5L349.4 44.6z"/>
  </g>
</svg>
